<svg width="41" height="41" viewBox="0 0 41 41" fill="none" xmlns="http://www.w3.org/2000/svg">
<rect x="0.0429688" y="0.0546875" width="40" height="40" rx="20" stroke="#204971"/>
<path d="M13.3763 14.7214C13.3763 11.0395 16.3611 8.05469 20.043 8.05469C23.7249 8.05469 26.7096 11.0395 26.7096 14.7214C26.7096 18.4033 23.7249 21.388 20.043 21.388C16.3611 21.388 13.3763 18.4033 13.3763 14.7214Z" fill="#204971"/>
<path fill-rule="evenodd" clip-rule="evenodd" d="M20.043 0.0546875C8.99727 0.0546875 0.0429688 9.00899 0.0429688 20.0547C0.0429688 31.1004 8.99727 40.0547 20.043 40.0547C31.0887 40.0547 40.043 31.1004 40.043 20.0547C40.043 9.00899 31.0887 0.0546875 20.043 0.0546875ZM2.70964 20.0547C2.70964 10.4818 10.47 2.72135 20.043 2.72135C29.6159 2.72135 37.3763 10.4818 37.3763 20.0547C37.3763 24.9869 35.3163 29.4379 32.0097 32.5943C31.6071 27.8109 27.597 24.0547 22.7096 24.0547H17.3763C12.4889 24.0547 8.47884 27.8109 8.07621 32.5943C4.76965 29.4379 2.70964 24.9869 2.70964 20.0547Z" fill="#204971"/>
</svg>
