<svg width="515" height="94" viewBox="0 0 515 94" fill="none" xmlns="http://www.w3.org/2000/svg">
<g clip-path="url(#clip0_3540_6435)">
<path d="M160.485 70.2987H164.51V79.4437H174.957V70.2987H178.982V93.3218H174.957V82.9475H164.51V93.3218H160.485V70.2987Z" fill="#27A8E0"/>
<path d="M199.962 69.7437C201.487 69.7113 203.001 70.0135 204.398 70.6292C205.794 71.2448 207.038 72.159 208.043 73.3073C209.002 74.438 209.744 75.7357 210.232 77.1354C211.242 80.1604 211.242 83.4316 210.232 86.4567C209.766 87.8665 209.022 89.1683 208.043 90.2848C207.09 91.3928 205.906 92.2782 204.573 92.8783C203.127 93.5395 201.551 93.8691 199.962 93.8431C198.372 93.8725 196.797 93.5427 195.353 92.8783C194.024 92.2708 192.84 91.3865 191.88 90.2848C190.926 89.1561 190.194 87.8573 189.722 86.4567C188.712 83.4316 188.712 80.1604 189.722 77.1354C190.187 75.7319 190.92 74.4319 191.88 73.3073C192.833 72.1978 194.019 71.3123 195.353 70.7137C196.802 70.0641 198.374 69.7333 199.962 69.7437ZM199.962 73.0453C198.858 73.0271 197.767 73.2782 196.782 73.7767C195.918 74.2621 195.179 74.9423 194.624 75.7634C194.052 76.6282 193.637 77.5869 193.397 78.5956C193.131 79.6471 192.995 80.727 192.99 81.8116C192.981 82.8962 193.118 83.977 193.397 85.025C193.643 86.0325 194.058 86.9911 194.624 87.8598C195.18 88.6796 195.919 89.3596 196.782 89.8465C197.773 90.3261 198.86 90.5753 199.962 90.5753C201.063 90.5753 202.15 90.3261 203.141 89.8465C204.011 89.3676 204.752 88.6861 205.302 87.8598C205.871 86.9931 206.286 86.0338 206.526 85.025C207.069 82.9162 207.069 80.7044 206.526 78.5956C206.281 77.5892 205.867 76.6316 205.302 75.7634C204.724 74.886 203.928 74.1742 202.991 73.6976C202.055 73.2211 201.011 72.9963 199.962 73.0453Z" fill="#27A8E0"/>
<path d="M220.97 70.2987H226.631L232.962 88.3266H233.05L239.205 70.2987H244.81V93.3218H240.987V75.5584H240.919L234.56 93.3218H231.232L224.873 75.5584H224.785V93.3218H220.962L220.97 70.2987Z" fill="#27A8E0"/>
<path d="M254.79 70.2987H271.329V73.7767H258.815V79.8249H270.398V83.0954H258.815V89.8387H271.562V93.3141H254.79V70.2987Z" fill="#27A8E0"/>
<path d="M301.279 85.6371C301.257 86.4107 301.407 87.1795 301.718 87.8883C302.003 88.4917 302.434 89.0142 302.973 89.4082C303.521 89.8197 304.145 90.1177 304.809 90.2848C305.555 90.4633 306.32 90.5504 307.086 90.5441C307.846 90.5653 308.604 90.4664 309.332 90.2511C309.882 90.0889 310.397 89.8249 310.85 89.473C311.213 89.1729 311.502 88.793 311.695 88.3629C311.865 87.9662 311.953 87.5392 311.955 87.1076C311.955 86.231 311.75 85.5879 311.371 85.1495C311.007 84.7601 310.558 84.4601 310.059 84.2729C309.124 83.9374 308.172 83.6542 307.206 83.4248C306.129 83.1654 304.786 82.8127 303.212 82.3744C302.343 82.1727 301.514 81.8264 300.761 81.3499C300.158 80.9855 299.63 80.5103 299.205 79.9494C298.832 79.4606 298.555 78.9052 298.39 78.3129C298.224 77.7338 298.146 77.1333 298.157 76.5311C298.124 75.48 298.376 74.4397 298.886 73.52C299.358 72.6811 300.016 71.9616 300.81 71.4165C301.632 70.846 302.551 70.4303 303.523 70.1898C304.523 69.9238 305.553 69.7861 306.588 69.78C307.729 69.7679 308.866 69.9252 309.96 70.2468C310.968 70.5481 311.916 71.0229 312.761 71.65C313.561 72.2724 314.219 73.0596 314.688 73.9583C315.174 74.9481 315.414 76.0408 315.386 77.1432H311.304C311.187 75.6545 310.691 74.6015 309.786 73.9868C308.881 73.3721 307.745 73.0817 306.345 73.0817C305.854 73.0886 305.366 73.138 304.884 73.2294C304.416 73.3177 303.963 73.475 303.541 73.6963C303.13 73.9193 302.78 74.2399 302.522 74.63C302.24 75.0646 302.097 75.5749 302.112 76.0928C302.095 76.4494 302.154 76.8057 302.285 77.1378C302.416 77.47 302.616 77.7706 302.872 78.0198C303.44 78.5239 304.12 78.885 304.856 79.0728C304.942 79.1013 305.294 79.1895 305.878 79.3321C306.461 79.4748 307.131 79.6823 307.859 79.8508C308.588 80.0194 309.291 80.2295 309.991 80.4059C310.691 80.5823 311.187 80.7275 311.477 80.8156C312.179 81.0237 312.84 81.3491 313.433 81.7779C313.97 82.1695 314.443 82.6429 314.833 83.181C315.201 83.6996 315.486 84.2717 315.679 84.8772C316.163 86.5851 315.977 88.4133 315.16 89.9891C314.644 90.8831 313.935 91.6511 313.085 92.2377C312.193 92.8324 311.207 93.271 310.168 93.5345C309.07 93.8044 307.944 93.942 306.814 93.9443C305.561 93.9623 304.312 93.7945 303.108 93.4464C302.008 93.1541 300.977 92.6483 300.073 91.9577C299.202 91.2701 298.502 90.3892 298.03 89.3848C297.488 88.2338 297.21 86.9766 297.215 85.7045H301.269L301.279 85.6371Z" fill="#27A8E0"/>
<path d="M325.937 70.2987H342.478V73.7767H329.962V79.8249H341.55V83.0954H329.967V89.8387H342.717V93.3141H325.937V70.2987Z" fill="#27A8E0"/>
<path d="M352.702 70.2987H363.673C366.209 70.2987 368.108 70.8537 369.361 71.9352C370.613 73.0167 371.257 74.5652 371.257 76.5233C371.287 77.4534 371.118 78.3792 370.761 79.2388C370.487 79.8769 370.102 80.4609 369.623 80.9635C369.255 81.3574 368.821 81.6839 368.341 81.9283C368.049 82.0762 367.747 82.2027 367.436 82.3069V82.3666C367.818 82.4258 368.19 82.5339 368.544 82.6882C368.969 82.8764 369.348 83.1553 369.654 83.5052C370.022 83.9367 370.308 84.4314 370.499 84.9653C370.741 85.6902 370.85 86.4529 370.821 87.2166C370.802 88.4511 370.909 89.6844 371.142 90.8969C371.345 92.0069 371.661 92.7979 372.074 93.2647H367.745C367.456 92.763 367.279 92.2048 367.226 91.6283C367.169 91.0136 367.138 90.4586 367.138 89.875C367.154 88.9647 367.086 88.0548 366.936 87.1569C366.825 86.4853 366.587 85.841 366.235 85.2584C365.888 84.7584 365.401 84.3722 364.835 84.1484C364.104 83.891 363.332 83.7722 362.558 83.7982H356.725V93.2647H352.702V70.2987ZM356.73 80.7871H363.323C364.607 80.7871 365.597 80.4966 366.241 79.882C366.884 79.2673 367.231 78.3621 367.231 77.1354C367.249 76.5256 367.139 75.9189 366.91 75.3536C366.728 74.9169 366.425 74.5415 366.036 74.272C365.651 74.0065 365.213 73.8294 364.752 73.7533C364.26 73.6719 363.762 73.6328 363.263 73.6366H356.73V80.7871Z" fill="#27A8E0"/>
<path d="M382.046 70.2987H386.247L391.995 88.5004H392.052L397.947 70.2987H402.032L394.181 93.3218H389.72L382.046 70.2987Z" fill="#27A8E0"/>
<path d="M416.037 70.2987H412.012V93.2881H416.037V70.2987Z" fill="#27A8E0"/>
<path d="M442.678 77.6333C442.515 76.9951 442.28 76.3774 441.978 75.7919C441.681 75.2381 441.286 74.7432 440.811 74.3317C440.327 73.908 439.761 73.5892 439.148 73.3955C438.435 73.1498 437.685 73.0313 436.931 73.0453C435.827 73.0265 434.736 73.2776 433.751 73.7767C432.88 74.2534 432.139 74.9353 431.591 75.7634C431.023 76.6336 430.6 77.5901 430.338 78.5956C430.07 79.6467 429.932 80.7268 429.928 81.8116C429.918 82.8964 430.056 83.9774 430.338 85.025C430.58 86.0381 431.005 86.9987 431.591 87.8598C432.168 88.7372 432.965 89.449 433.901 89.9252C434.837 90.4013 435.882 90.6254 436.931 90.5753C437.752 90.5957 438.569 90.4364 439.322 90.1084C440.001 89.806 440.608 89.3642 441.104 88.8116C441.603 88.2429 441.997 87.5906 442.268 86.8846C442.559 86.1355 442.746 85.3501 442.823 84.5504H446.763C446.693 85.8481 446.396 87.1235 445.887 88.3189C445.416 89.4325 444.721 90.4371 443.845 91.2703C442.969 92.1042 441.938 92.7587 440.811 93.1973C439.587 93.6496 438.292 93.8772 436.988 93.8691C435.399 93.898 433.824 93.5691 432.379 92.9069C431.055 92.3068 429.879 91.4211 428.938 90.3133C427.983 89.1848 427.25 87.886 426.777 86.4852C425.767 83.4602 425.767 80.189 426.777 77.1639C427.243 75.7609 427.976 74.4616 428.938 73.3384C429.885 72.2367 431.059 71.3521 432.379 70.7448C433.825 70.0868 435.399 69.7573 436.988 69.78C438.223 69.7702 439.453 69.9451 440.637 70.2988C441.724 70.6326 442.741 71.1598 443.64 71.8549C444.506 72.515 445.222 73.3512 445.741 74.3084C446.297 75.3396 446.634 76.474 446.732 77.6411L442.678 77.6333Z" fill="#27A8E0"/>
<path d="M456.743 70.2987H473.285V73.7767H460.768V79.8249H472.351V83.0954H460.768V89.8387H473.518V93.3141H456.743V70.2987Z" fill="#27A8E0"/>
<path d="M487.498 85.6371C487.476 86.4106 487.625 87.1795 487.936 87.8883C488.221 88.491 488.651 89.0134 489.189 89.4081C489.737 89.8197 490.362 90.1177 491.028 90.2847C491.772 90.4633 492.536 90.5504 493.302 90.5441C494.062 90.5654 494.82 90.4665 495.548 90.251C496.098 90.0894 496.613 89.8254 497.065 89.473C497.43 89.1736 497.719 88.7935 497.911 88.3629C498.081 87.9661 498.169 87.5392 498.17 87.1076C498.17 86.231 497.965 85.5878 497.587 85.1495C497.216 84.7665 496.768 84.4676 496.272 84.2728C495.337 83.9369 494.385 83.6537 493.419 83.4247C492.34 83.1654 490.999 82.8126 489.422 82.3743C488.554 82.1717 487.726 81.8255 486.971 81.3499C486.369 80.9856 485.841 80.5104 485.415 79.9494C485.041 79.4607 484.764 78.9052 484.598 78.3128C484.447 77.7307 484.369 77.1323 484.365 76.531C484.332 75.48 484.584 74.4396 485.093 73.5199C485.568 72.6816 486.227 71.9622 487.021 71.4165C487.845 70.8506 488.764 70.4353 489.733 70.1897C490.733 69.9238 491.762 69.7861 492.796 69.78C493.942 69.767 495.082 69.9243 496.181 70.2468C497.189 70.548 498.137 71.0229 498.982 71.65C499.782 72.2718 500.439 73.0591 500.907 73.9582C501.394 74.9478 501.634 76.0405 501.607 77.1431H497.581C497.465 75.6544 496.967 74.6014 496.064 73.9868C495.162 73.3721 494.021 73.0816 492.62 73.0816C492.131 73.0886 491.643 73.138 491.162 73.2294C490.695 73.3172 490.243 73.4746 489.822 73.6963C489.409 73.9189 489.059 74.2396 488.8 74.63C488.482 75.1563 488.344 75.7719 488.407 76.3835C488.47 76.9951 488.731 77.5695 489.15 78.0197C489.718 78.5239 490.398 78.885 491.134 79.0727C491.22 79.1013 491.572 79.1894 492.153 79.3321C492.734 79.4747 493.408 79.6822 494.14 79.8508C494.871 80.0194 495.569 80.2295 496.267 80.4059C496.964 80.5822 497.465 80.7274 497.755 80.8156C498.457 81.0233 499.118 81.3487 499.711 81.7779C500.248 82.1694 500.721 82.6429 501.111 83.181C501.479 83.6995 501.764 84.2717 501.957 84.8772C502.144 85.4637 502.231 86.0773 502.216 86.6927C502.253 87.8426 501.984 88.9817 501.438 89.9943C500.922 90.8882 500.213 91.6562 499.363 92.2429C498.472 92.8381 497.485 93.2766 496.446 93.5397C495.347 93.8097 494.221 93.9473 493.089 93.9495C491.837 93.9673 490.589 93.7994 489.386 93.4515C488.287 93.1587 487.256 92.6528 486.351 91.9628C485.48 91.2758 484.781 90.3948 484.31 89.39C483.766 88.2397 483.487 86.9821 483.493 85.7097H487.49L487.498 85.6371Z" fill="#27A8E0"/>
<path d="M45.2112 42.7135V59.9219L57.3465 69.7774L89.4081 41.2482V24.2732L56.9392 51.5316L45.2112 42.7135Z" fill="#ADC936"/>
<path d="M2.70246 63.2779C12.1845 100.366 65.7496 91.1796 68.6959 86.7679V80.4862C68.6959 80.4862 26.1898 98.7476 20.733 44.6353C20.733 44.6353 17.3795 9.39907 36.2243 7.734C36.2243 7.734 45.8518 6.27126 46.9022 14.454C47.9526 22.6367 48.7695 32.6867 60.0904 30.1736C71.4087 27.6007 69.5128 19.2157 69.5128 19.2157C69.5128 19.2157 65.5162 1.39273 37.0414 1.39273C8.56662 1.39273 -6.50731 27.1936 2.70246 63.2779Z" fill="url(#paint0_linear_3540_6435)"/>
<path d="M2.70239 63.278C12.1845 100.366 65.7495 91.1796 68.6958 86.7679V80.4862C68.6958 80.4862 26.1898 98.7476 20.7329 44.6353C20.7251 44.6068 5.03661 48.5802 2.70239 63.278Z" fill="url(#paint1_linear_3540_6435)"/>
<path d="M118.36 0H115.966V93.8276H118.36V0Z" fill="#27A8E0"/>
<path d="M174.555 55.3209C172.631 56.2883 169.303 57.266 164.666 57.266C152.305 57.266 146.511 49.4723 146.511 36.0687C146.511 26.3947 150.759 18.2743 162.277 18.2743C168.302 18.2743 174.791 21.441 174.791 26.6386C174.791 29.6497 172.395 31.0295 170.081 31.0295C165.363 31.0295 165.906 25.3366 165.364 23.7182C164.585 21.2777 163.198 21.039 161.657 21.039C156.864 21.039 154.935 26.0706 154.935 34.357C154.935 42.4801 157.637 53.6117 167.685 53.6117C170.462 53.6117 173.248 52.7999 174.555 52.3927V55.3209Z" fill="white"/>
<path d="M179.192 54.6699C183.669 54.6699 184.984 53.2097 184.984 47.6024V10.229C184.984 4.46353 182.131 3.73213 179.192 3.73213V1.94519L192.791 1.52588e-05V27.9302H192.943C194.725 24.6 198.276 18.2665 205.546 18.2665C213.503 18.2665 214.973 22.8986 214.973 29.0765V47.5946C214.973 53.2019 216.27 54.6621 220.767 54.6621V56.4594H201.367V54.6725C205.844 54.6725 207.164 53.2123 207.164 47.605V35.6746C207.164 25.8449 206.002 23.241 202.143 23.241C197.734 23.241 192.791 31.696 192.791 36.8079V47.6179C192.791 53.2252 194.1 54.6854 198.587 54.6854V56.4594H179.192V54.6699Z" fill="white"/>
<path d="M247.683 47.6776H247.533C245.909 50.9325 242.587 57.2738 235.781 57.2738C227.124 57.2738 225.503 52.6417 225.503 46.4742V28.5163C225.503 22.7482 222.728 22.0324 219.709 22.0324V20.2454L233.31 18.2899V39.8995C233.31 49.7291 234.702 52.3227 239.184 52.3227C243.202 52.3227 247.683 43.8806 247.683 38.8361V28.5215C247.683 22.7534 244.9 22.0376 241.892 22.0376V20.2506L255.49 18.2951V47.0525C255.49 52.8206 258.343 53.5546 261.287 53.5546V55.3416L247.683 57.2868V47.6776Z" fill="white"/>
<path d="M264.684 54.6699C269.166 54.6699 270.481 53.2097 270.481 47.6024V28.5085C270.481 22.7404 267.698 22.0246 264.684 22.0246V20.2376L278.28 18.2821V27.7071H278.433C279.748 24.0501 282.611 18.2821 288.947 18.2821C290.718 18.2821 293.117 19.8382 293.117 22.507C293.117 25.3444 291.183 27.0536 288.947 27.0536C286.162 27.0536 286.704 25.1861 284.151 25.1861C281.755 25.1861 278.28 30.1399 278.28 38.5119V47.6101C278.28 53.2174 279.595 54.6776 284.079 54.6776V56.4594H264.684V54.6699Z" fill="white"/>
<path d="M322.583 55.3209C320.648 56.2883 317.331 57.266 312.691 57.266C300.328 57.266 294.536 49.4723 294.536 36.0687C294.536 26.3947 298.787 18.2743 310.302 18.2743C316.327 18.2743 322.824 21.441 322.824 26.6386C322.824 29.6497 320.425 31.0295 318.106 31.0295C313.391 31.0295 313.931 25.3366 313.391 23.7182C312.613 21.2777 311.228 21.039 309.683 21.039C304.887 21.039 302.96 26.0706 302.96 34.357C302.96 42.4801 305.668 53.6117 315.707 53.6117C318.493 53.6117 321.273 52.7999 322.588 52.3927L322.583 55.3209Z" fill="white"/>
<path d="M325.988 54.6699C330.47 54.6699 331.785 53.2097 331.785 47.6024V10.229C331.785 4.46353 328.932 3.73213 325.988 3.73213V1.94519L339.587 1.52588e-05V27.9302H339.737C341.521 24.6 345.072 18.2665 352.336 18.2665C360.299 18.2665 361.764 22.8986 361.764 29.0765V47.5946C361.764 53.2019 363.082 54.6621 367.563 54.6621V56.4594H348.161V54.6725C352.65 54.6725 353.965 53.2123 353.965 47.605V35.6746C353.965 25.8449 352.801 23.241 348.936 23.241C344.527 23.241 339.599 31.696 339.599 36.8079V47.6179C339.599 53.2252 340.912 54.6854 345.393 54.6854V56.4594H325.988V54.6699Z" fill="white"/>
<path d="M370.256 54.6699C374.737 54.6699 376.05 53.2097 376.05 47.6024V22.4136H369.716V19.0835H376.044V11.4506C376.044 3.41053 381.997 1.52588e-05 390.568 1.52588e-05C396.679 1.52588e-05 401.083 1.29681 401.083 5.51654C401.083 8.11011 398.748 9.66625 396.593 9.66625C391.733 9.66625 392.272 2.75695 387.863 2.75695C384.154 2.75695 383.848 7.1453 383.848 11.2846V19.0861H394.046V22.4162H383.848V47.605C383.848 53.2123 385.158 54.6725 389.64 54.6725V56.4594H370.245L370.256 54.6699Z" fill="white"/>
<path d="M400.315 54.6699C404.872 54.6699 406.106 53.2097 406.106 47.6024V28.5085C406.106 22.7404 403.326 22.0246 400.315 22.0246V20.2376L413.916 18.2821V47.6101C413.916 53.2174 415.153 54.6776 419.71 54.6776V56.4594H400.315V54.6699ZM405.334 6.57727C405.334 3.72434 407.424 1.54317 410.129 1.54317C412.834 1.54317 414.995 3.73212 414.995 6.57727C414.995 9.49504 412.837 11.6918 410.129 11.6918C407.421 11.6918 405.334 9.49504 405.334 6.57727Z" fill="white"/>
<path d="M451.494 55.1626C448.101 56.5256 444.483 57.2417 440.826 57.2738C428.924 57.2738 421.893 49.9625 421.893 36.4785C421.893 24.2084 427.698 18.2821 438.049 18.2821C450.184 18.2821 452.194 26.8123 452.194 33.6308H430.317C430.317 42.1663 433.411 53.6195 444.385 53.6195C446.821 53.6072 449.234 53.1392 451.499 52.2397L451.494 55.1626ZM444.38 30.3032C444.38 25.1861 443.083 21.0468 437.732 21.0468C431.866 21.0468 430.312 27.1365 430.312 30.3032H444.38Z" fill="white"/>
<path d="M455.112 55.0744C459.669 55.0744 460.901 53.6143 460.901 48.007V10.6337C460.901 4.86815 458.123 4.14973 455.112 4.14973V2.36272L468.715 0.417545V48.0199C468.715 53.6272 470.012 55.0874 474.504 55.0874V56.8744H455.112V55.0744Z" fill="white"/>
<path d="M501.399 50.6057H501.244C499.55 53.2849 496.918 57.2661 490.039 57.2661C479.447 57.2661 476.981 47.2756 476.981 37.7701C476.981 26.8045 480.848 18.2743 491.583 18.2743C497.309 18.2743 499.781 21.773 501.244 24.1254H501.399V10.229C501.399 4.46353 498.619 3.73213 495.605 3.73213V1.94519L509.206 1.52588e-05V47.0318C509.206 52.7999 511.911 53.5339 515 53.5339V55.3209L501.399 57.2661V50.6057ZM493.595 52.6339C500.092 52.6339 501.399 45.5664 501.399 37.7701C501.399 27.8575 499.623 22.175 493.595 22.175C487.184 22.175 485.405 30.1321 485.405 37.7701C485.405 46.1344 487.184 52.6339 493.595 52.6339Z" fill="white"/>
</g>
<defs>
<linearGradient id="paint0_linear_3540_6435" x1="-3.37532e-05" y1="46.2382" x2="69.6321" y2="46.2382" gradientUnits="userSpaceOnUse">
<stop stop-color="#8CD2F3"/>
<stop offset="1" stop-color="#2CA8E0"/>
</linearGradient>
<linearGradient id="paint1_linear_3540_6435" x1="2.70239" y1="67.8608" x2="68.6958" y2="67.8608" gradientUnits="userSpaceOnUse">
<stop stop-color="#2CA8E0"/>
<stop offset="0.05" stop-color="#33ADE2"/>
<stop offset="0.22" stop-color="#53BCEA"/>
<stop offset="0.4" stop-color="#6CC5EE"/>
<stop offset="0.58" stop-color="#7FCEF2"/>
<stop offset="0.77" stop-color="#8AD1F3"/>
<stop offset="1" stop-color="#8CD2F3"/>
</linearGradient>
<clipPath id="clip0_3540_6435">
<rect width="515" height="93.9365" fill="white"/>
</clipPath>
</defs>
</svg>
